<?xml version="1.0" encoding="iso-8859-1"?>
<!-- Generator: Adobe Illustrator 19.0.0, SVG Export Plug-In . SVG Version: 6.00 Build 0)  -->
<svg version="1.1" id="Layer_1" xmlns="http://www.w3.org/2000/svg" xmlns:xlink="http://www.w3.org/1999/xlink" x="0px" y="0px"
	 viewBox="0 0 485 485" style="enable-background:new 0 0 485 485;" xml:space="preserve">
<g>
	<path d="M428.571,87.041V0H324.212v91.371c0,138.175-112.413,250.588-250.588,250.588c-12.975,0-26.001-1-38.716-2.971
		l-17.298-2.681v67.881l4.394,4.393C71.283,457.861,136.803,485,206.494,485c69.69,0,135.21-27.139,184.488-76.417
		c42.354-42.354,69.015-98.437,75.07-157.919C471.87,193.518,458.572,135.598,428.571,87.041z M398.571,30v46.371h-44.358V30
		H398.571z M272.03,289.777c49.445-49.445,78.154-114.096,81.781-183.406h11.763c23.953,78.134,2.326,164.575-56.549,222.847
		c-58.759,58.157-147.341,79.208-225.667,53.631c-9.631-3.15-18.987-7-27.973-11.488c6.072,0.391,12.161,0.599,18.241,0.599
		C148.572,371.959,219.033,342.773,272.03,289.777z M369.77,387.369C326.158,430.981,268.171,455,206.494,455
		c-50.218,0-97.985-15.924-137.543-45.38c1.689,0.595,3.38,1.187,5.085,1.745c25.191,8.226,51.46,12.357,77.848,12.357
		c19.313,0,38.694-2.215,57.743-6.661c45.62-10.647,87.288-33.649,120.5-66.521c64.6-63.938,89.661-157.809,66.645-244.169h8.418
		C458.414,196.117,444.095,313.044,369.77,387.369z"/>
</g>
<g>
</g>
<g>
</g>
<g>
</g>
<g>
</g>
<g>
</g>
<g>
</g>
<g>
</g>
<g>
</g>
<g>
</g>
<g>
</g>
<g>
</g>
<g>
</g>
<g>
</g>
<g>
</g>
<g>
</g>
</svg>
